<?xml version="1.0" standalone="no"?>
<!DOCTYPE svg PUBLIC "-//W3C//DTD SVG 1.1//EN" "http://www.w3.org/Graphics/SVG/1.1/DTD/svg11.dtd" >
<svg xmlns="http://www.w3.org/2000/svg">
<metadata></metadata>
<defs>
<font id="tocodemedium" horiz-adv-x="640" >
<font-face units-per-em="1024" ascent="768" descent="-256" />
<missing-glyph horiz-adv-x="500" />
<glyph unicode="&#xd;" />
<glyph unicode=" " />
<glyph unicode="!" d="M320 -128h-64v64v64h64h64v-64v-64h-64zM320 128h-64v64v64v64v64v64v64v64v64v64v64h64h64v-64v-64v-64v-64v-64v-64v-64v-64v-64v-64h-64z" />
<glyph unicode="&#x22;" d="M320 384h-64v64v64v64v64v64v64h64h64v-64v-64v-64v-64v-64v-64h-64zM64 384h-64v64v64v64v64v64v64h64h64v-64v-64v-64v-64v-64v-64h-64z" />
<glyph unicode="#" d="M384 -128h-64v64v64h-64v-64v-64h-64h-64v64v64h-64h-64v64v64h64h64v64v64v64v64h-64h-64v64v64h64h64v64v64h64h64v-64v-64h64v64v64h64h64v-64v-64h64v-64v-64h-64v-64v-64v-64v-64h64v-64v-64h-64v-64v-64h-64zM320 128v64v64v64v64h-64v-64v-64v-64v-64h64z" />
<glyph unicode="$" d="M192 -256h-64v64v64h-64h-64v64v64h64h64h64v64v64h-64v64v64h-64h-64v64v64h64h64v64v64h64h64v64v64h64h64v-64v-64h64h64v-64v-64h-64h-64h-64v-64v-64h64v-64v-64h64h64v-64v-64h-64h-64v64v64h-64h-64v-64v-64h64h64v-64v-64h-64h-64v-64v-64h-64zM192 256h64v64v64 h-64h-64v-64v-64h64z" />
<glyph unicode="%" d="M384 -128h-64v64h-64v64v64h64v64h64h64v-64h64v-64v-64h-64v-64h-64zM64 0h-64v64v64h64v64h64v64h64v64h64v64h64v64h64v64h64h64v-64v-64h-64v-64h-64v-64h-64v-64h-64v-64h-64v-64h-64v-64h-64zM128 384h-64v64h-64v64v64h64v64h64h64v-64h64v-64v-64h-64v-64h-64z " />
<glyph unicode="&#x26;" d="M448 -128h-64v64h-64h-64v-64h-64h-64v64h-64v64h-64v64v64v64v64h64v64v64h-64v64v64h64v64h64v64h64h64v-64h64v-64h64v-64v-64h-64v-64h-64v-64h64v-64h64v64h64h64v-64v-64h-64v-64v-64h64v-64v-64h-64zM192 0h64v64v64h-64v64v64h-64v-64v-64v-64v-64h64zM192 384 h64v64v64h-64h-64v-64v-64h64z" />
<glyph unicode="'" d="M192 384h-64v64v64v64v64v64v64h64h64v-64v-64v-64v-64v-64v-64h-64z" />
<glyph unicode="(" d="M320 -128h-64v64v64h64h64v-64v-64h-64zM256 0h-64h-64v64v64v64v64v64v64v64v64h64h64v-64v-64v-64v-64v-64v-64v-64v-64zM256 512v64v64h64h64v-64v-64h-64h-64z" />
<glyph unicode=")" d="M192 -128h-64v64v64h64h64v-64v-64h-64zM256 0v64v64v64v64v64v64v64v64h64h64v-64v-64v-64v-64v-64v-64v-64v-64h-64h-64zM256 512h-64h-64v64v64h64h64v-64v-64z" />
<glyph unicode="*" d="M448 384h-64v64v64h64h64v-64v-64h-64zM256 384h-64v64v64h-64v-64v-64h-64h-64v64v64h64h64v64v64h64v64v64h64h64v-64v-64h64v-64v-64h-64v-64v-64h-64zM384 640v64v64h64h64v-64v-64h-64h-64zM128 640h-64h-64v64v64h64h64v-64v-64z" />
<glyph unicode="+" d="M256 64h-64v64v64v64h-64h-64h-64v64v64h64h64h64v64v64v64h64h64v-64v-64v-64h64h64h64v-64v-64h-64h-64h-64v-64v-64v-64h-64z" />
<glyph unicode="," d="M64 -256h-64v64v64v64v64h64h64v64v64v64v64h64h64h64h64v-64v-64v-64v-64h-64h-64v-64v-64h-64h-64v-64v-64h-64z" />
<glyph unicode="-" d="M448 256h-64h-64h-64h-64h-64h-64h-64v64v64h64h64h64h64h64h64h64h64v-64v-64h-64z" />
<glyph unicode="." d="M320 -128h-64h-64h-64v64v64v64v64h64h64h64h64v-64v-64v-64v-64h-64z" />
<glyph unicode="/" d="M64 -128h-64v64v64h64v64v64h64v64v64h64v64v64h64v64v64h64v64v64h64v64v64h64h64v-64v-64h-64v-64v-64h-64v-64v-64h-64v-64v-64h-64v-64v-64h-64v-64v-64h-64v-64v-64h-64z" />
<glyph unicode="0" d="M320 -128h-64h-64h-64v64v64h64h64h64h64v-64v-64h-64zM384 0v64v64v64v64v64v64h-64v-64v-64h-64v-64v-64h-64h-64v-64v-64h-64h-64v64v64v64v64v64v64v64v64v64v64h64h64v-64v-64v-64v-64v-64v-64h64v64v64h64v64v64h64h64v64v64h64h64v-64v-64v-64v-64v-64v-64v-64 v-64v-64v-64h-64h-64zM384 640h-64h-64h-64h-64v64v64h64h64h64h64v-64v-64z" />
<glyph unicode="1" d="M320 -128h-64v64v64v64v64v64v64v64v64v64v64h-64h-64v-64v-64h-64h-64v64v64h64h64v64v64h64h64v64v64h64h64v-64v-64v-64v-64v-64v-64v-64v-64v-64v-64v-64v-64v-64v-64h-64z" />
<glyph unicode="2" d="M448 -128h-64h-64h-64h-64h-64h-64h-64v64v64v64v64h64h64v-64v-64h64h64h64h64h64h64v-64v-64h-64zM128 128v64v64h64h64v-64v-64h-64h-64zM256 256v64v64h64h64v-64v-64h-64h-64zM384 384v64v64v64v64h64h64v-64v-64v-64v-64h-64h-64zM64 512h-64v64v64h64h64v-64v-64 h-64zM384 640h-64h-64h-64h-64v64v64h64h64h64h64v-64v-64z" />
<glyph unicode="3" d="M320 -128h-64h-64h-64v64v64h64h64h64h64v-64v-64h-64zM384 0v64v64v64v64h64h64v-64v-64v-64v-64h-64h-64zM128 0h-64h-64v64v64h64h64v-64v-64zM384 256h-64h-64v64v64h64h64v-64v-64zM384 384v64v64v64v64h64h64v-64v-64v-64v-64h-64h-64zM64 512h-64v64v64h64h64v-64 v-64h-64zM384 640h-64h-64h-64h-64v64v64h64h64h64h64v-64v-64z" />
<glyph unicode="4" d="M320 -128h-64v64v64v64v64h-64h-64h-64h-64v64v64v64v64v64v64h64h64v-64v-64v-64v-64h64h64v64v64h64h64v-64v-64h64h64v-64v-64h-64h-64v-64v-64v-64v-64h-64zM128 512v64v64h64h64v-64v-64h-64h-64zM256 640v64v64h64h64v-64v-64h-64h-64z" />
<glyph unicode="5" d="M320 -128h-64h-64h-64v64v64h64h64h64h64v-64v-64h-64zM384 0v64v64v64v64h64h64v-64v-64v-64v-64h-64h-64zM128 0h-64h-64v64v64h64h64v-64v-64zM384 256h-64h-64h-64h-64h-64h-64v64v64v64v64v64v64v64v64h64h64h64h64h64h64h64h64v-64v-64h-64h-64h-64h-64h-64h-64 v-64v-64v-64v-64h64h64h64h64v-64v-64z" />
<glyph unicode="6" d="M320 -128h-64h-64h-64v64v64h64h64h64h64v-64v-64h-64zM384 0v64v64v64v64h64h64v-64v-64v-64v-64h-64h-64zM128 0h-64h-64v64v64v64v64v64v64v64v64v64v64h64h64v-64v-64v-64v-64h64h64h64h64v-64v-64h-64h-64h-64h-64v-64v-64v-64v-64zM320 640h-64h-64h-64v64v64h64 h64h64h64v-64v-64h-64z" />
<glyph unicode="7" d="M192 -128h-64v64v64v64h64v64v64v64v64h64v64v64h64v64v64v64h-64h-64h-64h-64h-64v64v64h64h64h64h64h64h64h64h64v-64v-64h-64v-64v-64v-64h-64v-64v-64h-64v-64v-64v-64v-64h-64v-64v-64v-64h-64z" />
<glyph unicode="8" d="M320 -128h-64h-64h-64v64v64h64h64h64h64v-64v-64h-64zM384 0v64v64v64v64h64h64v-64v-64v-64v-64h-64h-64zM128 0h-64h-64v64v64v64v64h64h64v-64v-64v-64v-64zM384 256h-64h-64h-64h-64v64v64h64h64h64h64v-64v-64zM384 384v64v64v64v64h64h64v-64v-64v-64v-64h-64h-64 zM128 384h-64h-64v64v64v64v64h64h64v-64v-64v-64v-64zM384 640h-64h-64h-64h-64v64v64h64h64h64h64v-64v-64z" />
<glyph unicode="9" d="M320 -128h-64h-64h-64v64v64h64h64h64h64v-64v-64h-64zM384 0v64v64v64v64h-64h-64h-64h-64v64v64h64h64h64h64v64v64v64v64h64h64v-64v-64v-64v-64v-64v-64v-64v-64v-64v-64h-64h-64zM128 384h-64h-64v64v64v64v64h64h64v-64v-64v-64v-64zM384 640h-64h-64h-64h-64v64 v64h64h64h64h64v-64v-64z" />
<glyph unicode=":" d="M320 0h-64h-64h-64v64v64v64v64h64h64h64h64v-64v-64v-64v-64h-64zM320 384h-64h-64h-64v64v64v64v64h64h64h64h64v-64v-64v-64v-64h-64z" />
<glyph unicode=";" d="M64 -256h-64v64v64v64v64h64h64v64v64v64v64h64h64h64h64v-64v-64v-64v-64h-64h-64v-64v-64h-64h-64v-64v-64h-64zM320 384h-64h-64h-64v64v64v64v64h64h64h64h64v-64v-64v-64v-64h-64z" />
<glyph unicode="&#x3c;" horiz-adv-x="512" d="M320 0h-64v64v64h64h64v-64v-64h-64zM256 128h-64h-64v64v64h64h64v-64v-64zM128 256h-64h-64v64v64h64h64v-64v-64zM128 384v64v64h64h64v-64v-64h-64h-64zM256 512v64v64h64h64v-64v-64h-64h-64z" />
<glyph unicode="=" d="M448 128h-64h-64h-64h-64h-64h-64h-64v64v64h64h64h64h64h64h64h64h64v-64v-64h-64zM448 384h-64h-64h-64h-64h-64h-64h-64v64v64h64h64h64h64h64h64h64h64v-64v-64h-64z" />
<glyph unicode="&#x3e;" d="M192 0h-64v64v64h64h64v-64v-64h-64zM256 128v64v64h64h64v-64v-64h-64h-64zM384 256v64v64h64h64v-64v-64h-64h-64zM384 384h-64h-64v64v64h64h64v-64v-64zM256 512h-64h-64v64v64h64h64v-64v-64z" />
<glyph unicode="?" d="M192 -128h-64v64v64h64h64v-64v-64h-64zM192 128h-64v64v64h64h64v-64v-64h-64zM256 256v64v64h64h64v-64v-64h-64h-64zM384 384v64v64v64v64h64h64v-64v-64v-64v-64h-64h-64zM64 512h-64v64v64h64h64v-64v-64h-64zM384 640h-64h-64h-64h-64v64v64h64h64h64h64v-64v-64z " />
<glyph unicode="@" d="M320 -128h-64h-64h-64v64v64h64h64h64h64v-64v-64h-64zM128 0h-64h-64v64v64v64v64v64v64v64v64h64h64v-64v-64v-64v-64v-64v-64v-64v-64zM448 64h-64h-64h-64h-64v64v64v64v64v64h64h64h64v64v64h64h64v-64v-64v-64v-64v-64v-64v-64h-64zM384 192v64h-64v-64h64z M384 512h-64h-64h-64h-64v64v64h64h64h64h64v-64v-64z" />
<glyph unicode="A" d="M448 -128h-64v64v64v64v64v64v64h-64h-64h-64h-64v-64v-64v-64v-64v-64v-64h-64h-64v64v64v64v64v64v64v64v64v64v64v64v64h64h64v-64v-64v-64v-64h64h64h64h64v64v64v64v64h64h64v-64v-64v-64v-64v-64v-64v-64v-64v-64v-64v-64v-64h-64zM384 640h-64h-64h-64h-64v64v64 h64h64h64h64v-64v-64z" />
<glyph unicode="B" d="M320 -128h-64h-64h-64h-64h-64v64v64v64v64v64v64v64v64v64v64v64v64v64v64h64h64h64h64h64h64v-64v-64h64h64v-64v-64v-64v-64h-64h-64v64v64v64v64h-64h-64h-64h-64v-64v-64v-64v-64h64h64h64h64v-64v-64h64h64v-64v-64v-64v-64h-64h-64v64v64v64v64h-64h-64h-64h-64 v-64v-64v-64v-64h64h64h64h64v-64v-64h-64z" />
<glyph unicode="C" d="M320 -128h-64h-64h-64v64v64h64h64h64h64v-64v-64h-64zM384 0v64v64h64h64v-64v-64h-64h-64zM128 0h-64h-64v64v64v64v64v64v64v64v64v64v64h64h64v-64v-64v-64v-64v-64v-64v-64v-64v-64v-64zM448 512h-64v64v64h64h64v-64v-64h-64zM384 640h-64h-64h-64h-64v64v64h64h64 h64h64v-64v-64z" />
<glyph unicode="D" d="M320 -128h-64h-64h-64h-64h-64v64v64v64v64v64v64v64v64v64v64v64v64v64v64h64h64h64h64h64h64v-64v-64h64h64v-64v-64v-64v-64v-64v-64v-64v-64v-64v-64h-64h-64v64v64v64v64v64v64v64v64v64v64h-64h-64h-64h-64v-64v-64v-64v-64v-64v-64v-64v-64v-64v-64h64h64h64h64 v-64v-64h-64z" />
<glyph unicode="E" d="M448 -128h-64h-64h-64h-64h-64h-64h-64v64v64v64v64v64v64v64v64v64v64v64v64v64v64h64h64h64h64h64h64h64h64v-64v-64h-64h-64h-64h-64h-64h-64v-64v-64v-64v-64h64h64h64h64v-64v-64h-64h-64h-64h-64v-64v-64v-64v-64h64h64h64h64h64h64v-64v-64h-64z" />
<glyph unicode="F" d="M64 -128h-64v64v64v64v64v64v64v64v64v64v64v64v64v64v64h64h64h64h64h64h64h64h64v-64v-64h-64h-64h-64h-64h-64h-64v-64v-64v-64v-64h64h64h64h64v-64v-64h-64h-64h-64h-64v-64v-64v-64v-64v-64v-64h-64z" />
<glyph unicode="G" d="M320 -128h-64h-64h-64v64v64h64h64h64h64v-64v-64h-64zM384 0v64v64v64v64h-64h-64v64v64h64h64h64h64v-64v-64v-64v-64v-64v-64h-64h-64zM128 0h-64h-64v64v64v64v64v64v64v64v64v64v64h64h64v-64v-64v-64v-64v-64v-64v-64v-64v-64v-64zM448 512h-64v64v64h64h64v-64 v-64h-64zM384 640h-64h-64h-64h-64v64v64h64h64h64h64v-64v-64z" />
<glyph unicode="H" d="M448 -128h-64v64v64v64v64v64v64h-64h-64h-64h-64v-64v-64v-64v-64v-64v-64h-64h-64v64v64v64v64v64v64v64v64v64v64v64v64v64v64h64h64v-64v-64v-64v-64v-64v-64h64h64h64h64v64v64v64v64v64v64h64h64v-64v-64v-64v-64v-64v-64v-64v-64v-64v-64v-64v-64v-64v-64h-64z " />
<glyph unicode="I" d="M320 -128h-64h-64h-64h-64h-64v64v64h64h64v64v64v64v64v64v64v64v64v64v64h-64h-64v64v64h64h64h64h64h64h64v-64v-64h-64h-64v-64v-64v-64v-64v-64v-64v-64v-64v-64v-64h64h64v-64v-64h-64z" />
<glyph unicode="J" d="M320 -128h-64h-64h-64v64v64h64h64h64h64v-64v-64h-64zM384 0v64v64v64v64v64v64v64v64v64v64v64v64h64h64v-64v-64v-64v-64v-64v-64v-64v-64v-64v-64v-64v-64h-64h-64zM128 0h-64h-64v64v64h64h64v-64v-64z" />
<glyph unicode="K" d="M448 -128h-64v64v64v64v64h64h64v-64v-64v-64v-64h-64zM64 -128h-64v64v64v64v64v64v64v64v64v64v64v64v64v64v64h64h64v-64v-64v-64v-64v-64v-64h64h64v-64v-64h64h64v-64v-64h-64h-64v64v64h-64h-64v-64v-64v-64v-64v-64v-64h-64zM256 384v64v64h64h64v-64v-64h-64h-64 zM384 512v64v64v64v64h64h64v-64v-64v-64v-64h-64h-64z" />
<glyph unicode="L" d="M448 -128h-64h-64h-64h-64h-64h-64h-64v64v64v64v64v64v64v64v64v64v64v64v64v64v64h64h64v-64v-64v-64v-64v-64v-64v-64v-64v-64v-64v-64v-64h64h64h64h64h64h64v-64v-64h-64z" />
<glyph unicode="M" d="M448 -128h-64v64v64v64v64v64v64v64v64v64v64h-64v-64h-64h-64v64h-64v-64v-64v-64v-64v-64v-64v-64v-64v-64v-64h-64h-64v64v64v64v64v64v64v64v64v64v64v64v64v64v64h64h64v-64h64v-64h64h64v64h64v64h64h64v-64v-64v-64v-64v-64v-64v-64v-64v-64v-64v-64v-64v-64v-64 h-64z" />
<glyph unicode="N" d="M448 -128h-64v64h-64v64h-64v64v64h-64v64v64v64v64h-64v-64v-64v-64v-64v-64v-64v-64v-64h-64h-64v64v64v64v64v64v64v64v64v64v64v64v64v64v64h64h64v-64v-64h64v-64v-64h64v-64v-64h64v-64v-64v-64v-64h64v64v64v64v64v64v64v64v64v64v64h64h64v-64v-64v-64v-64v-64 v-64v-64v-64v-64v-64v-64v-64v-64v-64h-64z" />
<glyph unicode="O" d="M320 -128h-64h-64h-64v64v64h64h64h64h64v-64v-64h-64zM384 0v64v64v64v64v64v64v64v64v64v64h64h64v-64v-64v-64v-64v-64v-64v-64v-64v-64v-64h-64h-64zM128 0h-64h-64v64v64v64v64v64v64v64v64v64v64h64h64v-64v-64v-64v-64v-64v-64v-64v-64v-64v-64zM384 640h-64h-64 h-64h-64v64v64h64h64h64h64v-64v-64z" />
<glyph unicode="P" d="M64 -128h-64v64v64v64v64v64v64v64v64v64v64v64v64v64v64h64h64h64h64h64h64v-64v-64h64h64v-64v-64v-64v-64h-64h-64v64v64v64v64h-64h-64h-64h-64v-64v-64v-64v-64h64h64h64h64v-64v-64h-64h-64h-64h-64v-64v-64v-64v-64v-64v-64h-64z" />
<glyph unicode="Q" d="M448 -128h-64v64v64h64h64v-64v-64h-64zM192 -128h-64v64v64h64h64v-64v-64h-64zM384 0h-64h-64v64v64h64h64v-64v-64zM128 0h-64h-64v64v64v64v64v64v64v64v64v64v64h64h64v-64v-64v-64v-64v-64v-64v-64v-64v-64v-64zM384 128v64v64v64v64v64v64v64v64h64h64v-64v-64 v-64v-64v-64v-64v-64v-64h-64h-64zM384 640h-64h-64h-64h-64v64v64h64h64h64h64v-64v-64z" />
<glyph unicode="R" d="M448 -128h-64v64v64h64h64v-64v-64h-64zM64 -128h-64v64v64v64v64v64v64v64v64v64v64v64v64v64v64h64h64h64h64h64h64v-64v-64h64h64v-64v-64v-64v-64h-64h-64v64v64v64v64h-64h-64h-64h-64v-64v-64v-64v-64h64h64h64h64v-64v-64h-64h-64v-64v-64h64h64v-64v-64h-64h-64 v64v64h-64h-64v-64v-64v-64v-64h-64z" />
<glyph unicode="S" d="M320 -128h-64h-64h-64v64v64h64h64h64h64v-64v-64h-64zM384 0v64v64v64v64h64h64v-64v-64v-64v-64h-64h-64zM128 0h-64h-64v64v64h64h64v-64v-64zM384 256h-64h-64h-64h-64v64v64h64h64h64h64v-64v-64zM128 384h-64h-64v64v64v64v64h64h64v-64v-64v-64v-64zM448 512h-64 v64v64h64h64v-64v-64h-64zM384 640h-64h-64h-64h-64v64v64h64h64h64h64v-64v-64z" />
<glyph unicode="T" d="M192 -128h-64v64v64v64v64v64v64v64v64v64v64v64v64h-64h-64v64v64h64h64h64h64h64h64v-64v-64h-64h-64v-64v-64v-64v-64v-64v-64v-64v-64v-64v-64v-64v-64h-64z" />
<glyph unicode="U" d="M320 -128h-64h-64h-64v64v64h64h64h64h64v-64v-64h-64zM384 0v64v64v64v64v64v64v64v64v64v64v64v64h64h64v-64v-64v-64v-64v-64v-64v-64v-64v-64v-64v-64v-64h-64h-64zM128 0h-64h-64v64v64v64v64v64v64v64v64v64v64v64v64h64h64v-64v-64v-64v-64v-64v-64v-64v-64v-64 v-64v-64v-64z" />
<glyph unicode="V" d="M192 -128h-64v64v64h-64v64v64v64v64h-64v64v64v64v64v64v64v64v64h64h64v-64v-64v-64v-64v-64v-64v-64v-64h64v-64v-64v-64v-64h64v64v64h64v64v64v64v64h64v64v64v64v64v64v64h64h64v-64v-64v-64v-64v-64v-64h-64v-64v-64v-64v-64h-64v-64v-64h-64v-64h-64v-64h-64z " />
<glyph unicode="W" d="M448 -128h-64v64h-64v64h-64h-64v-64h-64v-64h-64h-64v64v64v64v64v64v64v64v64v64v64v64v64v64v64h64h64v-64v-64v-64v-64v-64v-64v-64v-64v-64v-64h64v64h64h64v-64h64v64v64v64v64v64v64v64v64v64v64h64h64v-64v-64v-64v-64v-64v-64v-64v-64v-64v-64v-64v-64v-64v-64 h-64z" />
<glyph unicode="X" d="M448 -128h-64v64v64v64v64h-64v64v64h-64h-64v-64v-64h-64v-64v-64v-64v-64h-64h-64v64v64v64v64h64v64v64h64v64v64h-64v64v64h-64v64v64v64v64h64h64v-64v-64v-64v-64h64v-64v-64h64h64v64v64h64v64v64v64v64h64h64v-64v-64v-64v-64h-64v-64v-64h-64v-64v-64h64v-64 v-64h64v-64v-64v-64v-64h-64z" />
<glyph unicode="Y" d="M320 -128h-64v64v64v64v64v64v64h-64h-64v64v64h64h64h64h64v-64v-64v-64v-64v-64v-64v-64v-64h-64zM384 384v64v64v64v64v64v64h64h64v-64v-64v-64v-64v-64v-64h-64h-64zM128 384h-64h-64v64v64v64v64v64v64h64h64v-64v-64v-64v-64v-64v-64z" />
<glyph unicode="Z" d="M448 -128h-64h-64h-64h-64h-64h-64h-64v64v64h64v64v64h64v64v64h64v64v64h64v64v64h64v64v64h-64h-64h-64h-64h-64v64v64h64h64h64h64h64h64h64h64v-64v-64h-64v-64v-64h-64v-64v-64h-64v-64v-64h-64v-64v-64h-64v-64v-64h64h64h64h64h64v-64v-64h-64z" />
<glyph unicode="[" d="M448 -128h-64h-64h-64h-64h-64v64v64v64v64v64v64v64v64v64v64v64v64v64v64h64h64h64h64h64h64v-64v-64h-64h-64h-64h-64v-64v-64v-64v-64v-64v-64v-64v-64v-64v-64h64h64h64h64v-64v-64h-64z" />
<glyph unicode="\" d="M448 -128h-64v64v64h-64v64v64h-64v64v64h-64v64v64h-64v64v64h-64v64v64h-64v64v64h64h64v-64v-64h64v-64v-64h64v-64v-64h64v-64v-64h64v-64v-64h64v-64v-64h64v-64v-64h-64z" />
<glyph unicode="]" d="M320 -128h-64h-64h-64h-64h-64v64v64h64h64h64h64v64v64v64v64v64v64v64v64v64v64h-64h-64h-64h-64v64v64h64h64h64h64h64h64v-64v-64v-64v-64v-64v-64v-64v-64v-64v-64v-64v-64v-64v-64h-64z" />
<glyph unicode="^" d="M320 512h-64v64v64h64h64v-64v-64h-64zM64 512h-64v64v64h64h64v-64v-64h-64zM256 640h-64h-64v64v64h64h64v-64v-64z" />
<glyph unicode="_" d="M448 -128h-64h-64h-64h-64h-64h-64h-64v64v64h64h64h64h64h64h64h64h64v-64v-64h-64z" />
<glyph unicode="`" d="M320 384h-64v64v64h-64h-64v64v64h-64h-64v64v64h64h64h64h64v-64v-64h64h64v-64v-64v-64v-64h-64z" />
<glyph unicode="a" d="M448 -128h-64h-64h-64h-64h-64v64v64h-64h-64v64v64h64h64v64v64h64h64h64h64v64v64h64h64v-64v-64v-64v-64v-64v-64v-64v-64h-64zM320 0h64v64v64h-64h-64h-64h-64v-64v-64h64h64h64zM384 384h-64h-64h-64h-64h-64h-64v64v64h64h64h64h64h64h64v-64v-64z" />
<glyph unicode="b" d="M320 -128h-64h-64h-64h-64h-64v64v64v64v64v64v64v64v64v64v64v64v64v64v64h64h64v-64v-64v-64v-64h64h64h64h64v-64v-64h64h64v-64v-64v-64v-64v-64v-64h-64h-64v64v64v64v64v64v64h-64h-64h-64h-64v-64v-64v-64v-64v-64v-64h64h64h64h64v-64v-64h-64z" />
<glyph unicode="c" d="M320 -128h-64h-64h-64v64v64h64h64h64h64v-64v-64h-64zM384 0v64v64h64h64v-64v-64h-64h-64zM128 0h-64h-64v64v64v64v64v64v64h64h64v-64v-64v-64v-64v-64v-64zM448 256h-64v64v64h64h64v-64v-64h-64zM384 384h-64h-64h-64h-64v64v64h64h64h64h64v-64v-64z" />
<glyph unicode="d" d="M448 -128h-64h-64h-64h-64h-64v64v64h-64h-64v64v64v64v64v64v64h64h64v64v64h64h64h64h64v64v64v64v64h64h64v-64v-64v-64v-64v-64v-64v-64v-64v-64v-64v-64v-64v-64v-64h-64zM320 0h64v64v64v64v64v64v64h-64h-64h-64h-64v-64v-64v-64v-64v-64v-64h64h64h64z" />
<glyph unicode="e" d="M448 -128h-64h-64h-64h-64h-64v64v64h64h64h64h64h64h64v-64v-64h-64zM128 0h-64h-64v64v64v64v64v64v64h64h64v-64v-64h64h64h64h64v64v64h64h64v-64v-64v-64v-64h-64h-64h-64h-64h-64h-64v-64v-64zM384 384h-64h-64h-64h-64v64v64h64h64h64h64v-64v-64z" />
<glyph unicode="f" d="M192 -128h-64v64v64v64v64v64v64v64v64h-64h-64v64v64h64h64v64v64h64h64v-64v-64h64h64v-64v-64h-64h-64v-64v-64v-64v-64v-64v-64v-64v-64h-64zM448 640h-64h-64h-64v64v64h64h64h64h64v-64v-64h-64z" />
<glyph unicode="g" d="M320 -256h-64h-64h-64v64v64h64h64h64h64v-64v-64h-64zM384 -128v64v64h-64h-64h-64h-64v-64v-64h-64h-64v64v64h64h64v64v64h64h64h64h64v64v64h-64h-64v64v64h64h64v64v64h64h64v-64v-64v-64v-64v-64v-64v-64v-64v-64v-64h-64h-64zM128 128h-64h-64v64v64v64v64h64h64 v-64v-64v-64v-64zM256 384h-64h-64v64v64h64h64v-64v-64z" />
<glyph unicode="h" d="M448 -128h-64v64v64v64v64v64v64v64v64h64h64v-64v-64v-64v-64v-64v-64v-64v-64h-64zM64 -128h-64v64v64v64v64v64v64v64v64v64v64v64v64v64v64h64h64v-64v-64v-64v-64h64h64h64h64v-64v-64h-64h-64h-64h-64v-64v-64v-64v-64v-64v-64v-64v-64h-64z" />
<glyph unicode="i" d="M448 -128h-64h-64h-64h-64h-64v64v64h64h64v64v64v64v64v64v64h-64h-64v64v64h64h64h64h64v-64v-64v-64v-64v-64v-64v-64v-64h64h64v-64v-64h-64zM320 640h-64v64v64h64h64v-64v-64h-64z" />
<glyph unicode="j" d="M320 -128h-64h-64h-64v64v64h64h64h64h64v-64v-64h-64zM384 0v64v64v64v64v64v64h-64h-64v64v64h64h64h64h64v-64v-64v-64v-64v-64v-64v-64v-64h-64h-64zM128 0h-64h-64v64v64h64h64v-64v-64zM448 640h-64v64v64h64h64v-64v-64h-64z" />
<glyph unicode="k" d="M448 -128h-64v64v64h64h64v-64v-64h-64zM64 -128h-64v64v64v64v64v64v64v64v64v64v64v64v64v64v64h64h64v-64v-64v-64v-64v-64v-64v-64v-64h64h64v-64v-64h64h64v-64v-64h-64h-64v64v64h-64h-64v-64v-64v-64v-64h-64zM256 256v64v64h64h64v-64v-64h-64h-64zM384 384v64 v64h64h64v-64v-64h-64h-64z" />
<glyph unicode="l" d="M320 -128h-64v64v64v64v64v64v64v64v64v64v64v64v64v64v64h64h64v-64v-64v-64v-64v-64v-64v-64v-64v-64v-64v-64v-64v-64v-64h-64z" />
<glyph unicode="m" d="M448 -128h-64v64v64v64v64v64v64v64v64h-64v-64v-64v-64v-64v-64v-64v-64v-64h-64h-64v64v64v64v64v64v64v64v64h-64v-64v-64v-64v-64v-64v-64v-64v-64h-64h-64v64v64v64v64v64v64v64v64v64v64h64h64h64h64h64h64h64h64v-64v-64v-64v-64v-64v-64v-64v-64v-64v-64h-64z " />
<glyph unicode="n" d="M448 -128h-64v64v64v64v64v64v64v64v64h64h64v-64v-64v-64v-64v-64v-64v-64v-64h-64zM64 -128h-64v64v64v64v64v64v64v64v64v64v64h64h64v-64v-64h64h64v-64v-64h-64h-64v-64v-64v-64v-64v-64v-64h-64zM384 384h-64h-64v64v64h64h64v-64v-64z" />
<glyph unicode="o" d="M320 -128h-64h-64h-64v64v64h64h64h64h64v-64v-64h-64zM384 0v64v64v64v64v64v64h64h64v-64v-64v-64v-64v-64v-64h-64h-64zM128 0h-64h-64v64v64v64v64v64v64h64h64v-64v-64v-64v-64v-64v-64zM384 384h-64h-64h-64h-64v64v64h64h64h64h64v-64v-64z" />
<glyph unicode="p" d="M64 -256h-64v64v64v64v64v64v64v64v64v64v64v64v64h64h64h64h64h64h64v-64v-64h64h64v-64v-64v-64v-64h-64h-64v64v64v64v64h-64h-64h-64h-64v-64v-64v-64v-64h64h64h64h64v-64v-64h-64h-64h-64h-64v-64v-64v-64v-64h-64z" />
<glyph unicode="q" d="M448 -256h-64v64v64v64v64h-64h-64h-64h-64v64v64h64h64h64h64v64v64h-64h-64v64v64h64h64v64v64h64h64v-64v-64v-64v-64v-64v-64v-64v-64v-64v-64v-64v-64h-64zM128 128h-64h-64v64v64v64v64h64h64v-64v-64v-64v-64zM256 384h-64h-64v64v64h64h64v-64v-64z" />
<glyph unicode="r" d="M64 -128h-64v64v64v64v64v64v64v64v64v64v64h64h64v-64v-64h64h64v-64v-64h-64h-64v-64v-64v-64v-64v-64v-64h-64zM448 384h-64h-64h-64v64v64h64h64h64h64v-64v-64h-64z" />
<glyph unicode="s" d="M320 -128h-64h-64h-64h-64h-64v64v64h64h64h64h64h64h64v-64v-64h-64zM384 0v64v64h64h64v-64v-64h-64h-64zM384 128h-64h-64h-64h-64v64v64h64h64h64h64v-64v-64zM128 256h-64h-64v64v64h64h64v-64v-64zM448 384h-64h-64h-64h-64h-64v64v64h64h64h64h64h64h64v-64v-64 h-64z" />
<glyph unicode="t" d="M448 -128h-64h-64h-64v64v64h64h64h64h64v-64v-64h-64zM256 0h-64h-64v64v64v64v64v64v64h-64h-64v64v64h64h64v64v64v64v64h64h64v-64v-64v-64v-64h64h64v-64v-64h-64h-64v-64v-64v-64v-64v-64v-64z" />
<glyph unicode="u" d="M448 -128h-64v64v64h-64h-64v-64v-64h-64h-64v64v64h64h64v64v64h64h64v64v64v64v64v64v64h64h64v-64v-64v-64v-64v-64v-64v-64v-64v-64v-64h-64zM128 0h-64h-64v64v64v64v64v64v64v64v64h64h64v-64v-64v-64v-64v-64v-64v-64v-64z" />
<glyph unicode="v" d="M192 -128h-64v64v64h-64v64v64v64v64h-64v64v64v64v64h64h64v-64v-64v-64v-64h64v-64v-64v-64v-64h64v64v64h64v64v64v64v64h64v64v64h64h64v-64v-64h-64v-64v-64v-64v-64h-64v-64v-64h-64v-64h-64v-64h-64z" />
<glyph unicode="w" d="M320 320v-64v-64v-64v-64h64v64v64v64v64v64v64h64h64v-64v-64v-64v-64v-64v-64v-64v-64v-64h-64h-64v64h-64v64h-64h-64v-64h-64v-64h-64h-64v64v64v64v64v64v64v64v64v64h64h64v-64v-64v-64v-64v-64v-64h64v64v64v64v64h128z" />
<glyph unicode="x" d="M448 -128h-64v64v64h-64v64v64h-64h-64v-64v-64h-64v-64v-64h-64h-64v64v64h64v64v64h64v64v64h-64v64v64h-64v64v64h64h64v-64v-64h64v-64v-64h64h64v64v64h64v64v64h64h64v-64v-64h-64v-64v-64h-64v-64v-64h64v-64v-64h64v-64v-64h-64z" />
<glyph unicode="y" d="M320 -256h-64h-64h-64v64v64h64h64h64h64v-64v-64h-64zM384 -128v64v64h-64h-64v64v64h64h64v64v64v64v64v64v64h64h64v-64v-64v-64v-64v-64v-64v-64v-64v-64v-64h-64h-64zM256 128h-64h-64v64v64h64h64v-64v-64zM128 256h-64h-64v64v64v64v64h64h64v-64v-64v-64v-64z " />
<glyph unicode="z" d="M448 -128h-64h-64h-64h-64h-64h-64h-64v64v64v64h64v64h64v64h64v64h64v64h64v64h-64h-64h-64h-64h-64v64v64h64h64h64h64h64h64h64h64v-64v-64v-64h-64v-64h-64v-64h-64v-64h-64v-64h-64v-64h64h64h64h64h64v-64v-64h-64z" />
<glyph unicode="{" d="M320 -128h-64v64v64h64h64v-64v-64h-64zM256 0h-64h-64v64v64v64v64h64h64v-64v-64v-64v-64zM128 256h-64h-64v64v64h64h64v-64v-64zM128 384v64v64v64v64h64h64v-64v-64v-64v-64h-64h-64zM256 640v64v64h64h64v-64v-64h-64h-64z" />
<glyph unicode="|" d="M192 -128h-64v64v64v64v64v64v64v64v64v64v64v64v64v64v64h64h64v-64v-64v-64v-64v-64v-64v-64v-64v-64v-64v-64v-64v-64v-64h-64z" />
<glyph unicode="}" d="M192 -128h-64v64v64h64h64v-64v-64h-64zM256 0v64v64v64v64h64h64v-64v-64v-64v-64h-64h-64zM384 256v64v64h64h64v-64v-64h-64h-64zM384 384h-64h-64v64v64v64v64h64h64v-64v-64v-64v-64zM256 640h-64h-64v64v64h64h64v-64v-64z" />
<glyph unicode="~" d="M320 364h-64v64v64h64h64v-64v-64h-64zM64 364h-64v64v64h64h64v-64v-64h-64zM384 492v64v64h64h64v-64v-64h-64h-64zM256 492h-64h-64v64v64h64h64v-64v-64z" />
<glyph unicode="&#xa0;" />
<glyph unicode="&#xa1;" d="M192 -256h-64v64v64v64v64v64v64v64v64v64v64h64h64v-64v-64v-64v-64v-64v-64v-64v-64v-64v-64h-64zM192 512h-64v64v64h64h64v-64v-64h-64z" />
<glyph unicode="&#xa6;" d="M192 -256h-64v64v64v64v64v64v64h64h64v-64v-64v-64v-64v-64v-64h-64zM192 384h-64v64v64v64v64v64v64h64h64v-64v-64v-64v-64v-64v-64h-64z" />
<glyph unicode="&#xb1;" d="M448 -128h-64h-64h-64h-64h-64h-64h-64v64v64h64h64h64h64h64h64h64h64v-64v-64h-64zM256 64h-64v64v64v64h-64h-64h-64v64v64h64h64h64v64v64v64h64h64v-64v-64v-64h64h64h64v-64v-64h-64h-64h-64v-64v-64v-64h-64z" />
<glyph unicode="&#x2026;" d="M256 192v64h64v-64h-64zM128 192v64h64v-64h-64zM0 192v64h64v-64h-64z" />
<glyph unicode="&#x20bf;" d="M256 -128v64v64h-64v-64v-64h-64v64v64h-64h-64v64v64h64h64v64v64v64v64v64v64h-64h-64v64v64h64h64v64v64h64v-64v-64h64v64v64h64v-64v-64h64v-64h64v-64h64v-64v-64h-64h-64v64v64h-64h-64v-64v-64h64h64v-64v-64h-64h-64v-64v-64h64h64v64v64h64h64v-64v-64h-64v-64 h-64v-64h-64v-64v-64h-64z" />
<glyph unicode="&#x2308;" d="M128 64v64v64v64v64v64v64v64h64h64h64h64v-64h-64h-64h-64v-64v-64v-64v-64v-64v-64h-64z" />
<glyph unicode="&#x230b;" d="M320 0h-64h-64h-64v64h64h64h64v64v64v64v64v64v64v64h64v-64v-64v-64v-64v-64v-64v-64v-64h-64z" />
<glyph unicode="&#x25a3;" horiz-adv-x="1024" d="M261 511l399 6v-387h-384zM778 0l6 644l-661 17l9 -661l12 -131l-144 3v64v64v64v64v64v64v64v64v64v64v64v64v68v61l62 -1l65 1l64 -2l64 4l58 -2h70h68l64 -3l68 2h68h72l66 2l70 2l37 -2v-62v-69v-64v-64v-64v-64v-64v-64v-64v-64v-64v-64v-64v-64h-62h-58h-60l-60 2 l-58 2l-64 -2l-60 4l-52 -2h-64h-64l-74 -5l-151 5v125h709z" />
<glyph unicode="&#x25ae;" d="M128 -128h-64h-64v64v64v64v64v64v64v64v64v64v64v64v64v64v64h64h64h64h64h64h64h64h64v-64v-64v-64v-64v-64v-64v-64v-64v-64v-64v-64v-64v-64v-64h-64h-64h-64h-64h-64h-64z" />
<glyph unicode="&#x25af;" d="M128 -128l-13 4l-13 124h282v640h-256v-768h-128v64v64v64v64v64v64v64v64v64v64v64v64v64v64h64h64h64h64h64h64h64h64v-64v-64v-64v-64v-64v-64v-64v-64v-64v-64v-64v-64v-64v-64h-64h-64h-64h-64h-64h-64z" />
<glyph unicode="&#x25fc;" horiz-adv-x="510" d="M0 510h510v-510h-510v510z" />
<glyph unicode="&#x275b;" d="M320 256h-64v64v64h64v-64h64v-64h-64zM320 384v64h64v-64h-64z" />
<glyph unicode="&#x275c;" d="M128 256v64h64v-64h-64zM192 320v64h-64v64h64h64v-64v-64h-64z" />
<glyph unicode="&#x275d;" d="M320 256h-64v64v64h64v-64h64v-64h-64zM128 256h-64v64v64h64v-64h64v-64h-64zM320 384v64h64v-64h-64zM128 384v64h64v-64h-64z" />
<glyph unicode="&#x275e;" d="M256 256v64h64v-64h-64zM64 256v64h64v-64h-64zM320 320v64h-64v64h64h64v-64v-64h-64zM128 320v64h-64v64h64h64v-64v-64h-64z" />
<glyph unicode="&#x3000;" />
<glyph unicode="&#xff00;" d="M64 -128h-64v64v64v64v64v64v64v64v64v64v64v64v64v64v64h64h64v-64v-64v-64v-64v-64v-64v-64v-64v-64v-64v-64v-64v-64v-64h-64zM448 -128h-64v64v64v64v64v64v64v64v64v64v64v64v64v64v64h64h64v-64v-64v-64v-64v-64v-64v-64v-64v-64v-64v-64v-64v-64v-64h-64z M192 -128h-64v64v64v64v64v64v64v64v64v64v64v64v64v64v64h64h64v-64v-64v-64v-64v-64v-64v-64v-64v-64v-64v-64v-64v-64v-64h-64z" />
<glyph unicode="&#xff01;" d="M320 -128h-64v64v64h64h64v-64v-64h-64zM320 128h-64v64v64v64v64v64v64v64v64v64v64h64h64v-64v-64v-64v-64v-64v-64v-64v-64v-64v-64h-64z" />
<glyph unicode="&#xff02;" d="M320 384h-64v64v64v64v64v64v64h64h64v-64v-64v-64v-64v-64v-64h-64zM64 384h-64v64v64v64v64v64v64h64h64v-64v-64v-64v-64v-64v-64h-64z" />
<glyph unicode="&#xff03;" d="M384 -128h-64v64v64h-64v-64v-64h-64h-64v64v64h-64h-64v64v64h64h64v64v64v64v64h-64h-64v64v64h64h64v64v64h64h64v-64v-64h64v64v64h64h64v-64v-64h64v-64v-64h-64v-64v-64v-64v-64h64v-64v-64h-64v-64v-64h-64zM320 128v64v64v64v64h-64v-64v-64v-64v-64h64z" />
<glyph unicode="&#xff04;" d="M192 -256h-64v64v64h-64h-64v64v64h64h64h64v64v64h-64v64v64h-64h-64v64v64h64h64v64v64h64h64v64v64h64h64v-64v-64h64h64v-64v-64h-64h-64h-64v-64v-64h64v-64v-64h64h64v-64v-64h-64h-64v64v64h-64h-64v-64v-64h64h64v-64v-64h-64h-64v-64v-64h-64zM192 256h64v64v64 h-64h-64v-64v-64h64z" />
<glyph unicode="&#xff05;" d="M384 -128h-64v64h-64v64v64h64v64h64h64v-64h64v-64v-64h-64v-64h-64zM64 0h-64v64v64h64v64h64v64h64v64h64v64h64v64h64v64h64h64v-64v-64h-64v-64h-64v-64h-64v-64h-64v-64h-64v-64h-64v-64h-64zM128 384h-64v64h-64v64v64h64v64h64h64v-64h64v-64v-64h-64v-64h-64z " />
<glyph unicode="&#xff06;" d="M448 -128h-64v64h-64h-64v-64h-64h-64v64h-64v64h-64v64v64v64v64h64v64v64h-64v64v64h64v64h64v64h64h64v-64h64v-64h64v-64v-64h-64v-64h-64v-64h64v-64h64v64h64h64v-64v-64h-64v-64v-64h64v-64v-64h-64zM192 0h64v64v64h-64v64v64h-64v-64v-64v-64v-64h64zM192 384 h64v64v64h-64h-64v-64v-64h64z" />
<glyph unicode="&#xff07;" d="M192 384h-64v64v64v64v64v64v64h64h64v-64v-64v-64v-64v-64v-64h-64z" />
<glyph unicode="&#xff08;" d="M320 -128h-64v64v64h64h64v-64v-64h-64zM256 0h-64h-64v64v64v64v64v64v64v64v64h64h64v-64v-64v-64v-64v-64v-64v-64v-64zM256 512v64v64h64h64v-64v-64h-64h-64z" />
<glyph unicode="&#xff09;" d="M192 -128h-64v64v64h64h64v-64v-64h-64zM256 0v64v64v64v64v64v64v64v64h64h64v-64v-64v-64v-64v-64v-64v-64v-64h-64h-64zM256 512h-64h-64v64v64h64h64v-64v-64z" />
<glyph unicode="&#xff0a;" d="M448 384h-64v64v64h64h64v-64v-64h-64zM256 384h-64v64v64h-64v-64v-64h-64h-64v64v64h64h64v64v64h64v64v64h64h64v-64v-64h64v-64v-64h-64v-64v-64h-64zM384 640v64v64h64h64v-64v-64h-64h-64zM128 640h-64h-64v64v64h64h64v-64v-64z" />
<glyph unicode="&#xff0b;" d="M256 64h-64v64v64v64h-64h-64h-64v64v64h64h64h64v64v64v64h64h64v-64v-64v-64h64h64h64v-64v-64h-64h-64h-64v-64v-64v-64h-64z" />
<glyph unicode="&#xff0c;" d="M64 -256h-64v64v64v64v64h64h64v64v64v64v64h64h64h64h64v-64v-64v-64v-64h-64h-64v-64v-64h-64h-64v-64v-64h-64z" />
<glyph unicode="&#xff0d;" d="M448 256h-64h-64h-64h-64h-64h-64h-64v64v64h64h64h64h64h64h64h64h64v-64v-64h-64z" />
<glyph unicode="&#xff0e;" d="M320 -128h-64h-64h-64v64v64v64v64h64h64h64h64v-64v-64v-64v-64h-64z" />
<glyph unicode="&#xff0f;" d="M64 -128h-64v64v64h64v64v64h64v64v64h64v64v64h64v64v64h64v64v64h64v64v64h64h64v-64v-64h-64v-64v-64h-64v-64v-64h-64v-64v-64h-64v-64v-64h-64v-64v-64h-64v-64v-64h-64z" />
<glyph unicode="&#xff10;" d="M320 -128h-64h-64h-64v64v64h64h64h64h64v-64v-64h-64zM384 0v64v64v64v64v64v64h-64v-64v-64h-64v-64v-64h-64h-64v-64v-64h-64h-64v64v64v64v64v64v64v64v64v64v64h64h64v-64v-64v-64v-64v-64v-64h64v64v64h64v64v64h64h64v64v64h64h64v-64v-64v-64v-64v-64v-64v-64 v-64v-64v-64h-64h-64zM384 640h-64h-64h-64h-64v64v64h64h64h64h64v-64v-64z" />
<glyph unicode="&#xff11;" d="M320 -128h-64v64v64v64v64v64v64v64v64v64v64h-64h-64v-64v-64h-64h-64v64v64h64h64v64v64h64h64v64v64h64h64v-64v-64v-64v-64v-64v-64v-64v-64v-64v-64v-64v-64v-64v-64h-64z" />
<glyph unicode="&#xff12;" d="M448 -128h-64h-64h-64h-64h-64h-64h-64v64v64v64v64h64h64v-64v-64h64h64h64h64h64h64v-64v-64h-64zM128 128v64v64h64h64v-64v-64h-64h-64zM256 256v64v64h64h64v-64v-64h-64h-64zM384 384v64v64v64v64h64h64v-64v-64v-64v-64h-64h-64zM64 512h-64v64v64h64h64v-64v-64 h-64zM384 640h-64h-64h-64h-64v64v64h64h64h64h64v-64v-64z" />
<glyph unicode="&#xff13;" d="M320 -128h-64h-64h-64v64v64h64h64h64h64v-64v-64h-64zM384 0v64v64v64v64h64h64v-64v-64v-64v-64h-64h-64zM128 0h-64h-64v64v64h64h64v-64v-64zM384 256h-64h-64v64v64h64h64v-64v-64zM384 384v64v64v64v64h64h64v-64v-64v-64v-64h-64h-64zM64 512h-64v64v64h64h64v-64 v-64h-64zM384 640h-64h-64h-64h-64v64v64h64h64h64h64v-64v-64z" />
<glyph unicode="&#xff14;" d="M320 -128h-64v64v64v64v64h-64h-64h-64h-64v64v64v64v64v64v64h64h64v-64v-64v-64v-64h64h64v64v64h64h64v-64v-64h64h64v-64v-64h-64h-64v-64v-64v-64v-64h-64zM128 512v64v64h64h64v-64v-64h-64h-64zM256 640v64v64h64h64v-64v-64h-64h-64z" />
<glyph unicode="&#xff15;" d="M320 -128h-64h-64h-64v64v64h64h64h64h64v-64v-64h-64zM384 0v64v64v64v64h64h64v-64v-64v-64v-64h-64h-64zM128 0h-64h-64v64v64h64h64v-64v-64zM384 256h-64h-64h-64h-64h-64h-64v64v64v64v64v64v64v64v64h64h64h64h64h64h64h64h64v-64v-64h-64h-64h-64h-64h-64h-64 v-64v-64v-64v-64h64h64h64h64v-64v-64z" />
<glyph unicode="&#xff16;" d="M320 -128h-64h-64h-64v64v64h64h64h64h64v-64v-64h-64zM384 0v64v64v64v64h64h64v-64v-64v-64v-64h-64h-64zM128 0h-64h-64v64v64v64v64v64v64v64v64v64v64h64h64v-64v-64v-64v-64h64h64h64h64v-64v-64h-64h-64h-64h-64v-64v-64v-64v-64zM320 640h-64h-64h-64v64v64h64 h64h64h64v-64v-64h-64z" />
<glyph unicode="&#xff17;" d="M192 -128h-64v64v64v64h64v64v64v64v64h64v64v64h64v64v64v64h-64h-64h-64h-64h-64v64v64h64h64h64h64h64h64h64h64v-64v-64h-64v-64v-64v-64h-64v-64v-64h-64v-64v-64v-64v-64h-64v-64v-64v-64h-64z" />
<glyph unicode="&#xff18;" d="M320 -128h-64h-64h-64v64v64h64h64h64h64v-64v-64h-64zM384 0v64v64v64v64h64h64v-64v-64v-64v-64h-64h-64zM128 0h-64h-64v64v64v64v64h64h64v-64v-64v-64v-64zM384 256h-64h-64h-64h-64v64v64h64h64h64h64v-64v-64zM384 384v64v64v64v64h64h64v-64v-64v-64v-64h-64h-64 zM128 384h-64h-64v64v64v64v64h64h64v-64v-64v-64v-64zM384 640h-64h-64h-64h-64v64v64h64h64h64h64v-64v-64z" />
<glyph unicode="&#xff19;" d="M320 -128h-64h-64h-64v64v64h64h64h64h64v-64v-64h-64zM384 0v64v64v64v64h-64h-64h-64h-64v64v64h64h64h64h64v64v64v64v64h64h64v-64v-64v-64v-64v-64v-64v-64v-64v-64v-64h-64h-64zM128 384h-64h-64v64v64v64v64h64h64v-64v-64v-64v-64zM384 640h-64h-64h-64h-64v64 v64h64h64h64h64v-64v-64z" />
<glyph unicode="&#xff1a;" d="M320 0h-64h-64h-64v64v64v64v64h64h64h64h64v-64v-64v-64v-64h-64zM320 384h-64h-64h-64v64v64v64v64h64h64h64h64v-64v-64v-64v-64h-64z" />
<glyph unicode="&#xff1b;" d="M64 -256h-64v64v64v64v64h64h64v64v64v64v64h64h64h64h64v-64v-64v-64v-64h-64h-64v-64v-64h-64h-64v-64v-64h-64zM320 384h-64h-64h-64v64v64v64v64h64h64h64h64v-64v-64v-64v-64h-64z" />
<glyph unicode="&#xff1c;" horiz-adv-x="512" d="M320 0h-64v64v64h64h64v-64v-64h-64zM256 128h-64h-64v64v64h64h64v-64v-64zM128 256h-64h-64v64v64h64h64v-64v-64zM128 384v64v64h64h64v-64v-64h-64h-64zM256 512v64v64h64h64v-64v-64h-64h-64z" />
<glyph unicode="&#xff1d;" d="M448 128h-64h-64h-64h-64h-64h-64h-64v64v64h64h64h64h64h64h64h64h64v-64v-64h-64zM448 384h-64h-64h-64h-64h-64h-64h-64v64v64h64h64h64h64h64h64h64h64v-64v-64h-64z" />
<glyph unicode="&#xff1e;" d="M192 0h-64v64v64h64h64v-64v-64h-64zM256 128v64v64h64h64v-64v-64h-64h-64zM384 256v64v64h64h64v-64v-64h-64h-64zM384 384h-64h-64v64v64h64h64v-64v-64zM256 512h-64h-64v64v64h64h64v-64v-64z" />
<glyph unicode="&#xff1f;" d="M192 -128h-64v64v64h64h64v-64v-64h-64zM192 128h-64v64v64h64h64v-64v-64h-64zM256 256v64v64h64h64v-64v-64h-64h-64zM384 384v64v64v64v64h64h64v-64v-64v-64v-64h-64h-64zM64 512h-64v64v64h64h64v-64v-64h-64zM384 640h-64h-64h-64h-64v64v64h64h64h64h64v-64v-64z " />
<glyph unicode="&#xff20;" d="M320 -128h-64h-64h-64v64v64h64h64h64h64v-64v-64h-64zM128 0h-64h-64v64v64v64v64v64v64v64v64h64h64v-64v-64v-64v-64v-64v-64v-64v-64zM448 64h-64h-64h-64h-64v64v64v64v64v64h64h64h64v64v64h64h64v-64v-64v-64v-64v-64v-64v-64h-64zM384 192v64h-64v-64h64z M384 512h-64h-64h-64h-64v64v64h64h64h64h64v-64v-64z" />
<glyph unicode="&#xff21;" d="M448 -128h-64v64v64v64v64v64v64h-64h-64h-64h-64v-64v-64v-64v-64v-64v-64h-64h-64v64v64v64v64v64v64v64v64v64v64v64v64h64h64v-64v-64v-64v-64h64h64h64h64v64v64v64v64h64h64v-64v-64v-64v-64v-64v-64v-64v-64v-64v-64v-64v-64h-64zM384 640h-64h-64h-64h-64v64v64 h64h64h64h64v-64v-64z" />
<glyph unicode="&#xff22;" d="M320 -128h-64h-64h-64h-64h-64v64v64v64v64v64v64v64v64v64v64v64v64v64v64h64h64h64h64h64h64v-64v-64h64h64v-64v-64v-64v-64h-64h-64v64v64v64v64h-64h-64h-64h-64v-64v-64v-64v-64h64h64h64h64v-64v-64h64h64v-64v-64v-64v-64h-64h-64v64v64v64v64h-64h-64h-64h-64 v-64v-64v-64v-64h64h64h64h64v-64v-64h-64z" />
<glyph unicode="&#xff23;" d="M320 -128h-64h-64h-64v64v64h64h64h64h64v-64v-64h-64zM384 0v64v64h64h64v-64v-64h-64h-64zM128 0h-64h-64v64v64v64v64v64v64v64v64v64v64h64h64v-64v-64v-64v-64v-64v-64v-64v-64v-64v-64zM448 512h-64v64v64h64h64v-64v-64h-64zM384 640h-64h-64h-64h-64v64v64h64h64 h64h64v-64v-64z" />
<glyph unicode="&#xff24;" d="M320 -128h-64h-64h-64h-64h-64v64v64v64v64v64v64v64v64v64v64v64v64v64v64h64h64h64h64h64h64v-64v-64h64h64v-64v-64v-64v-64v-64v-64v-64v-64v-64v-64h-64h-64v64v64v64v64v64v64v64v64v64v64h-64h-64h-64h-64v-64v-64v-64v-64v-64v-64v-64v-64v-64v-64h64h64h64h64 v-64v-64h-64z" />
<glyph unicode="&#xff25;" d="M448 -128h-64h-64h-64h-64h-64h-64h-64v64v64v64v64v64v64v64v64v64v64v64v64v64v64h64h64h64h64h64h64h64h64v-64v-64h-64h-64h-64h-64h-64h-64v-64v-64v-64v-64h64h64h64h64v-64v-64h-64h-64h-64h-64v-64v-64v-64v-64h64h64h64h64h64h64v-64v-64h-64z" />
<glyph unicode="&#xff26;" d="M64 -128h-64v64v64v64v64v64v64v64v64v64v64v64v64v64v64h64h64h64h64h64h64h64h64v-64v-64h-64h-64h-64h-64h-64h-64v-64v-64v-64v-64h64h64h64h64v-64v-64h-64h-64h-64h-64v-64v-64v-64v-64v-64v-64h-64z" />
<glyph unicode="&#xff27;" d="M320 -128h-64h-64h-64v64v64h64h64h64h64v-64v-64h-64zM384 0v64v64v64v64h-64h-64v64v64h64h64h64h64v-64v-64v-64v-64v-64v-64h-64h-64zM128 0h-64h-64v64v64v64v64v64v64v64v64v64v64h64h64v-64v-64v-64v-64v-64v-64v-64v-64v-64v-64zM448 512h-64v64v64h64h64v-64 v-64h-64zM384 640h-64h-64h-64h-64v64v64h64h64h64h64v-64v-64z" />
<glyph unicode="&#xff28;" d="M448 -128h-64v64v64v64v64v64v64h-64h-64h-64h-64v-64v-64v-64v-64v-64v-64h-64h-64v64v64v64v64v64v64v64v64v64v64v64v64v64v64h64h64v-64v-64v-64v-64v-64v-64h64h64h64h64v64v64v64v64v64v64h64h64v-64v-64v-64v-64v-64v-64v-64v-64v-64v-64v-64v-64v-64v-64h-64z " />
<glyph unicode="&#xff29;" d="M320 -128h-64h-64h-64h-64h-64v64v64h64h64v64v64v64v64v64v64v64v64v64v64h-64h-64v64v64h64h64h64h64h64h64v-64v-64h-64h-64v-64v-64v-64v-64v-64v-64v-64v-64v-64v-64h64h64v-64v-64h-64z" />
<glyph unicode="&#xff2a;" d="M320 -128h-64h-64h-64v64v64h64h64h64h64v-64v-64h-64zM384 0v64v64v64v64v64v64v64v64v64v64v64v64h64h64v-64v-64v-64v-64v-64v-64v-64v-64v-64v-64v-64v-64h-64h-64zM128 0h-64h-64v64v64h64h64v-64v-64z" />
<glyph unicode="&#xff2b;" d="M448 -128h-64v64v64v64v64h64h64v-64v-64v-64v-64h-64zM64 -128h-64v64v64v64v64v64v64v64v64v64v64v64v64v64v64h64h64v-64v-64v-64v-64v-64v-64h64h64v-64v-64h64h64v-64v-64h-64h-64v64v64h-64h-64v-64v-64v-64v-64v-64v-64h-64zM256 384v64v64h64h64v-64v-64h-64h-64 zM384 512v64v64v64v64h64h64v-64v-64v-64v-64h-64h-64z" />
<glyph unicode="&#xff2c;" d="M448 -128h-64h-64h-64h-64h-64h-64h-64v64v64v64v64v64v64v64v64v64v64v64v64v64v64h64h64v-64v-64v-64v-64v-64v-64v-64v-64v-64v-64v-64v-64h64h64h64h64h64h64v-64v-64h-64z" />
<glyph unicode="&#xff2d;" d="M448 -128h-64v64v64v64v64v64v64v64v64v64v64h-64v-64h-64h-64v64h-64v-64v-64v-64v-64v-64v-64v-64v-64v-64v-64h-64h-64v64v64v64v64v64v64v64v64v64v64v64v64v64v64h64h64v-64h64v-64h64h64v64h64v64h64h64v-64v-64v-64v-64v-64v-64v-64v-64v-64v-64v-64v-64v-64v-64 h-64z" />
<glyph unicode="&#xff2e;" d="M448 -128h-64v64h-64v64h-64v64v64h-64v64v64v64v64h-64v-64v-64v-64v-64v-64v-64v-64v-64h-64h-64v64v64v64v64v64v64v64v64v64v64v64v64v64v64h64h64v-64v-64h64v-64v-64h64v-64v-64h64v-64v-64v-64v-64h64v64v64v64v64v64v64v64v64v64v64h64h64v-64v-64v-64v-64v-64 v-64v-64v-64v-64v-64v-64v-64v-64v-64h-64z" />
<glyph unicode="&#xff2f;" d="M320 -128h-64h-64h-64v64v64h64h64h64h64v-64v-64h-64zM384 0v64v64v64v64v64v64v64v64v64v64h64h64v-64v-64v-64v-64v-64v-64v-64v-64v-64v-64h-64h-64zM128 0h-64h-64v64v64v64v64v64v64v64v64v64v64h64h64v-64v-64v-64v-64v-64v-64v-64v-64v-64v-64zM384 640h-64h-64 h-64h-64v64v64h64h64h64h64v-64v-64z" />
<glyph unicode="&#xff30;" d="M64 -128h-64v64v64v64v64v64v64v64v64v64v64v64v64v64v64h64h64h64h64h64h64v-64v-64h64h64v-64v-64v-64v-64h-64h-64v64v64v64v64h-64h-64h-64h-64v-64v-64v-64v-64h64h64h64h64v-64v-64h-64h-64h-64h-64v-64v-64v-64v-64v-64v-64h-64z" />
<glyph unicode="&#xff31;" d="M448 -128h-64v64v64h64h64v-64v-64h-64zM192 -128h-64v64v64h64h64v-64v-64h-64zM384 0h-64h-64v64v64h64h64v-64v-64zM128 0h-64h-64v64v64v64v64v64v64v64v64v64v64h64h64v-64v-64v-64v-64v-64v-64v-64v-64v-64v-64zM384 128v64v64v64v64v64v64v64v64h64h64v-64v-64 v-64v-64v-64v-64v-64v-64h-64h-64zM384 640h-64h-64h-64h-64v64v64h64h64h64h64v-64v-64z" />
<glyph unicode="&#xff32;" d="M448 -128h-64v64v64h64h64v-64v-64h-64zM64 -128h-64v64v64v64v64v64v64v64v64v64v64v64v64v64v64h64h64h64h64h64h64v-64v-64h64h64v-64v-64v-64v-64h-64h-64v64v64v64v64h-64h-64h-64h-64v-64v-64v-64v-64h64h64h64h64v-64v-64h-64h-64v-64v-64h64h64v-64v-64h-64h-64 v64v64h-64h-64v-64v-64v-64v-64h-64z" />
<glyph unicode="&#xff33;" d="M320 -128h-64h-64h-64v64v64h64h64h64h64v-64v-64h-64zM384 0v64v64v64v64h64h64v-64v-64v-64v-64h-64h-64zM128 0h-64h-64v64v64h64h64v-64v-64zM384 256h-64h-64h-64h-64v64v64h64h64h64h64v-64v-64zM128 384h-64h-64v64v64v64v64h64h64v-64v-64v-64v-64zM448 512h-64 v64v64h64h64v-64v-64h-64zM384 640h-64h-64h-64h-64v64v64h64h64h64h64v-64v-64z" />
<glyph unicode="&#xff34;" d="M192 -128h-64v64v64v64v64v64v64v64v64v64v64v64v64h-64h-64v64v64h64h64h64h64h64h64v-64v-64h-64h-64v-64v-64v-64v-64v-64v-64v-64v-64v-64v-64v-64v-64h-64z" />
<glyph unicode="&#xff35;" d="M320 -128h-64h-64h-64v64v64h64h64h64h64v-64v-64h-64zM384 0v64v64v64v64v64v64v64v64v64v64v64v64h64h64v-64v-64v-64v-64v-64v-64v-64v-64v-64v-64v-64v-64h-64h-64zM128 0h-64h-64v64v64v64v64v64v64v64v64v64v64v64v64h64h64v-64v-64v-64v-64v-64v-64v-64v-64v-64 v-64v-64v-64z" />
<glyph unicode="&#xff36;" d="M192 -128h-64v64v64h-64v64v64v64v64h-64v64v64v64v64v64v64v64v64h64h64v-64v-64v-64v-64v-64v-64v-64v-64h64v-64v-64v-64v-64h64v64v64h64v64v64v64v64h64v64v64v64v64v64v64h64h64v-64v-64v-64v-64v-64v-64h-64v-64v-64v-64v-64h-64v-64v-64h-64v-64h-64v-64h-64z " />
<glyph unicode="&#xff37;" d="M448 -128h-64v64h-64v64h-64h-64v-64h-64v-64h-64h-64v64v64v64v64v64v64v64v64v64v64v64v64v64v64h64h64v-64v-64v-64v-64v-64v-64v-64v-64v-64v-64h64v64h64h64v-64h64v64v64v64v64v64v64v64v64v64v64h64h64v-64v-64v-64v-64v-64v-64v-64v-64v-64v-64v-64v-64v-64v-64 h-64z" />
<glyph unicode="&#xff38;" d="M448 -128h-64v64v64v64v64h-64v64v64h-64h-64v-64v-64h-64v-64v-64v-64v-64h-64h-64v64v64v64v64h64v64v64h64v64v64h-64v64v64h-64v64v64v64v64h64h64v-64v-64v-64v-64h64v-64v-64h64h64v64v64h64v64v64v64v64h64h64v-64v-64v-64v-64h-64v-64v-64h-64v-64v-64h64v-64 v-64h64v-64v-64v-64v-64h-64z" />
<glyph unicode="&#xff39;" d="M320 -128h-64v64v64v64v64v64v64h-64h-64v64v64h64h64h64h64v-64v-64v-64v-64v-64v-64v-64v-64h-64zM384 384v64v64v64v64v64v64h64h64v-64v-64v-64v-64v-64v-64h-64h-64zM128 384h-64h-64v64v64v64v64v64v64h64h64v-64v-64v-64v-64v-64v-64z" />
<glyph unicode="&#xff3a;" d="M448 -128h-64h-64h-64h-64h-64h-64h-64v64v64h64v64v64h64v64v64h64v64v64h64v64v64h64v64v64h-64h-64h-64h-64h-64v64v64h64h64h64h64h64h64h64h64v-64v-64h-64v-64v-64h-64v-64v-64h-64v-64v-64h-64v-64v-64h-64v-64v-64h64h64h64h64h64v-64v-64h-64z" />
<glyph unicode="&#xff3b;" d="M448 -128h-64h-64h-64h-64h-64v64v64v64v64v64v64v64v64v64v64v64v64v64v64h64h64h64h64h64h64v-64v-64h-64h-64h-64h-64v-64v-64v-64v-64v-64v-64v-64v-64v-64v-64h64h64h64h64v-64v-64h-64z" />
<glyph unicode="&#xff3c;" d="M448 -128h-64v64v64h-64v64v64h-64v64v64h-64v64v64h-64v64v64h-64v64v64h-64v64v64h64h64v-64v-64h64v-64v-64h64v-64v-64h64v-64v-64h64v-64v-64h64v-64v-64h64v-64v-64h-64z" />
<glyph unicode="&#xff3d;" d="M320 -128h-64h-64h-64h-64h-64v64v64h64h64h64h64v64v64v64v64v64v64v64v64v64v64h-64h-64h-64h-64v64v64h64h64h64h64h64h64v-64v-64v-64v-64v-64v-64v-64v-64v-64v-64v-64v-64v-64v-64h-64z" />
<glyph unicode="&#xff3e;" d="M320 512h-64v64v64h64h64v-64v-64h-64zM64 512h-64v64v64h64h64v-64v-64h-64zM256 640h-64h-64v64v64h64h64v-64v-64z" />
<glyph unicode="&#xff3f;" d="M448 -128h-64h-64h-64h-64h-64h-64h-64v64v64h64h64h64h64h64h64h64h64v-64v-64h-64z" />
<glyph unicode="&#xff40;" d="M320 384h-64v64v64h-64h-64v64v64h-64h-64v64v64h64h64h64h64v-64v-64h64h64v-64v-64v-64v-64h-64z" />
<glyph unicode="&#xff41;" d="M448 -128h-64h-64h-64h-64h-64v64v64h-64h-64v64v64h64h64v64v64h64h64h64h64v64v64h64h64v-64v-64v-64v-64v-64v-64v-64v-64h-64zM320 0h64v64v64h-64h-64h-64h-64v-64v-64h64h64h64zM384 384h-64h-64h-64h-64h-64h-64v64v64h64h64h64h64h64h64v-64v-64z" />
<glyph unicode="&#xff42;" d="M320 -128h-64h-64h-64h-64h-64v64v64v64v64v64v64v64v64v64v64v64v64v64v64h64h64v-64v-64v-64v-64h64h64h64h64v-64v-64h64h64v-64v-64v-64v-64v-64v-64h-64h-64v64v64v64v64v64v64h-64h-64h-64h-64v-64v-64v-64v-64v-64v-64h64h64h64h64v-64v-64h-64z" />
<glyph unicode="&#xff43;" d="M320 -128h-64h-64h-64v64v64h64h64h64h64v-64v-64h-64zM384 0v64v64h64h64v-64v-64h-64h-64zM128 0h-64h-64v64v64v64v64v64v64h64h64v-64v-64v-64v-64v-64v-64zM448 256h-64v64v64h64h64v-64v-64h-64zM384 384h-64h-64h-64h-64v64v64h64h64h64h64v-64v-64z" />
<glyph unicode="&#xff44;" d="M448 -128h-64h-64h-64h-64h-64v64v64h-64h-64v64v64v64v64v64v64h64h64v64v64h64h64h64h64v64v64v64v64h64h64v-64v-64v-64v-64v-64v-64v-64v-64v-64v-64v-64v-64v-64v-64h-64zM320 0h64v64v64v64v64v64v64h-64h-64h-64h-64v-64v-64v-64v-64v-64v-64h64h64h64z" />
<glyph unicode="&#xff45;" d="M448 -128h-64h-64h-64h-64h-64v64v64h64h64h64h64h64h64v-64v-64h-64zM128 0h-64h-64v64v64v64v64v64v64h64h64v-64v-64h64h64h64h64v64v64h64h64v-64v-64v-64v-64h-64h-64h-64h-64h-64h-64v-64v-64zM384 384h-64h-64h-64h-64v64v64h64h64h64h64v-64v-64z" />
<glyph unicode="&#xff46;" d="M192 -128h-64v64v64v64v64v64v64v64v64h-64h-64v64v64h64h64v64v64h64h64v-64v-64h64h64v-64v-64h-64h-64v-64v-64v-64v-64v-64v-64v-64v-64h-64zM448 640h-64h-64h-64v64v64h64h64h64h64v-64v-64h-64z" />
<glyph unicode="&#xff47;" d="M320 -256h-64h-64h-64v64v64h64h64h64h64v-64v-64h-64zM384 -128v64v64h-64h-64h-64h-64v-64v-64h-64h-64v64v64h64h64v64v64h64h64h64h64v64v64h-64h-64v64v64h64h64v64v64h64h64v-64v-64v-64v-64v-64v-64v-64v-64v-64v-64h-64h-64zM128 128h-64h-64v64v64v64v64h64h64 v-64v-64v-64v-64zM256 384h-64h-64v64v64h64h64v-64v-64z" />
<glyph unicode="&#xff48;" d="M448 -128h-64v64v64v64v64v64v64v64v64h64h64v-64v-64v-64v-64v-64v-64v-64v-64h-64zM64 -128h-64v64v64v64v64v64v64v64v64v64v64v64v64v64v64h64h64v-64v-64v-64v-64h64h64h64h64v-64v-64h-64h-64h-64h-64v-64v-64v-64v-64v-64v-64v-64v-64h-64z" />
<glyph unicode="&#xff49;" d="M448 -128h-64h-64h-64h-64h-64v64v64h64h64v64v64v64v64v64v64h-64h-64v64v64h64h64h64h64v-64v-64v-64v-64v-64v-64v-64v-64h64h64v-64v-64h-64zM320 640h-64v64v64h64h64v-64v-64h-64z" />
<glyph unicode="&#xff4a;" d="M320 -128h-64h-64h-64v64v64h64h64h64h64v-64v-64h-64zM384 0v64v64v64v64v64v64h-64h-64v64v64h64h64h64h64v-64v-64v-64v-64v-64v-64v-64v-64h-64h-64zM128 0h-64h-64v64v64h64h64v-64v-64zM448 640h-64v64v64h64h64v-64v-64h-64z" />
<glyph unicode="&#xff4b;" d="M448 -128h-64v64v64h64h64v-64v-64h-64zM64 -128h-64v64v64v64v64v64v64v64v64v64v64v64v64v64v64h64h64v-64v-64v-64v-64v-64v-64v-64v-64h64h64v-64v-64h64h64v-64v-64h-64h-64v64v64h-64h-64v-64v-64v-64v-64h-64zM256 256v64v64h64h64v-64v-64h-64h-64zM384 384v64 v64h64h64v-64v-64h-64h-64z" />
<glyph unicode="&#xff4c;" d="M320 -128h-64v64v64v64v64v64v64v64v64v64v64v64v64v64v64h64h64v-64v-64v-64v-64v-64v-64v-64v-64v-64v-64v-64v-64v-64v-64h-64z" />
<glyph unicode="&#xff4d;" d="M448 -128h-64v64v64v64v64v64v64v64v64h-64v-64v-64v-64v-64v-64v-64v-64v-64h-64h-64v64v64v64v64v64v64v64v64h-64v-64v-64v-64v-64v-64v-64v-64v-64h-64h-64v64v64v64v64v64v64v64v64v64v64h64h64h64h64h64h64h64h64v-64v-64v-64v-64v-64v-64v-64v-64v-64v-64h-64z " />
<glyph unicode="&#xff4e;" d="M448 -128h-64v64v64v64v64v64v64v64v64h64h64v-64v-64v-64v-64v-64v-64v-64v-64h-64zM64 -128h-64v64v64v64v64v64v64v64v64v64v64h64h64v-64v-64h64h64v-64v-64h-64h-64v-64v-64v-64v-64v-64v-64h-64zM384 384h-64h-64v64v64h64h64v-64v-64z" />
<glyph unicode="&#xff4f;" d="M320 -128h-64h-64h-64v64v64h64h64h64h64v-64v-64h-64zM384 0v64v64v64v64v64v64h64h64v-64v-64v-64v-64v-64v-64h-64h-64zM128 0h-64h-64v64v64v64v64v64v64h64h64v-64v-64v-64v-64v-64v-64zM384 384h-64h-64h-64h-64v64v64h64h64h64h64v-64v-64z" />
<glyph unicode="&#xff50;" d="M64 -256h-64v64v64v64v64v64v64v64v64v64v64v64v64h64h64h64h64h64h64v-64v-64h64h64v-64v-64v-64v-64h-64h-64v64v64v64v64h-64h-64h-64h-64v-64v-64v-64v-64h64h64h64h64v-64v-64h-64h-64h-64h-64v-64v-64v-64v-64h-64z" />
<glyph unicode="&#xff51;" d="M448 -256h-64v64v64v64v64h-64h-64h-64h-64v64v64h64h64h64h64v64v64h-64h-64v64v64h64h64v64v64h64h64v-64v-64v-64v-64v-64v-64v-64v-64v-64v-64v-64v-64h-64zM128 128h-64h-64v64v64v64v64h64h64v-64v-64v-64v-64zM256 384h-64h-64v64v64h64h64v-64v-64z" />
<glyph unicode="&#xff52;" d="M64 -128h-64v64v64v64v64v64v64v64v64v64v64h64h64v-64v-64h64h64v-64v-64h-64h-64v-64v-64v-64v-64v-64v-64h-64zM448 384h-64h-64h-64v64v64h64h64h64h64v-64v-64h-64z" />
<glyph unicode="&#xff53;" d="M320 -128h-64h-64h-64h-64h-64v64v64h64h64h64h64h64h64v-64v-64h-64zM384 0v64v64h64h64v-64v-64h-64h-64zM384 128h-64h-64h-64h-64v64v64h64h64h64h64v-64v-64zM128 256h-64h-64v64v64h64h64v-64v-64zM448 384h-64h-64h-64h-64h-64v64v64h64h64h64h64h64h64v-64v-64 h-64z" />
<glyph unicode="&#xff54;" d="M448 -128h-64h-64h-64v64v64h64h64h64h64v-64v-64h-64zM256 0h-64h-64v64v64v64v64v64v64h-64h-64v64v64h64h64v64v64v64v64h64h64v-64v-64v-64v-64h64h64v-64v-64h-64h-64v-64v-64v-64v-64v-64v-64z" />
<glyph unicode="&#xff55;" d="M448 -128h-64v64v64h-64h-64v-64v-64h-64h-64v64v64h64h64v64v64h64h64v64v64v64v64v64v64h64h64v-64v-64v-64v-64v-64v-64v-64v-64v-64v-64h-64zM128 0h-64h-64v64v64v64v64v64v64v64v64h64h64v-64v-64v-64v-64v-64v-64v-64v-64z" />
<glyph unicode="&#xff56;" d="M192 -128h-64v64v64h-64v64v64v64v64h-64v64v64v64v64h64h64v-64v-64v-64v-64h64v-64v-64v-64v-64h64v64v64h64v64v64v64v64h64v64v64h64h64v-64v-64h-64v-64v-64v-64v-64h-64v-64v-64h-64v-64h-64v-64h-64z" />
<glyph unicode="&#xff57;" d="M320 320v-64v-64v-64v-64h64v64v64v64v64v64v64h64h64v-64v-64v-64v-64v-64v-64v-64v-64v-64h-64h-64v64h-64v64h-64h-64v-64h-64v-64h-64h-64v64v64v64v64v64v64v64v64v64h64h64v-64v-64v-64v-64v-64v-64h64v64v64v64v64h128z" />
<glyph unicode="&#xff58;" d="M448 -128h-64v64v64h-64v64v64h-64h-64v-64v-64h-64v-64v-64h-64h-64v64v64h64v64v64h64v64v64h-64v64v64h-64v64v64h64h64v-64v-64h64v-64v-64h64h64v64v64h64v64v64h64h64v-64v-64h-64v-64v-64h-64v-64v-64h64v-64v-64h64v-64v-64h-64z" />
<glyph unicode="&#xff59;" d="M320 -256h-64h-64h-64v64v64h64h64h64h64v-64v-64h-64zM384 -128v64v64h-64h-64v64v64h64h64v64v64v64v64v64v64h64h64v-64v-64v-64v-64v-64v-64v-64v-64v-64v-64h-64h-64zM256 128h-64h-64v64v64h64h64v-64v-64zM128 256h-64h-64v64v64v64v64h64h64v-64v-64v-64v-64z " />
<glyph unicode="&#xff5a;" d="M448 -128h-64h-64h-64h-64h-64h-64h-64v64v64v64h64v64h64v64h64v64h64v64h64v64h-64h-64h-64h-64h-64v64v64h64h64h64h64h64h64h64h64v-64v-64v-64h-64v-64h-64v-64h-64v-64h-64v-64h-64v-64h64h64h64h64h64v-64v-64h-64z" />
<glyph unicode="&#xff5b;" d="M320 -128h-64v64v64h64h64v-64v-64h-64zM256 0h-64h-64v64v64v64v64h64h64v-64v-64v-64v-64zM128 256h-64h-64v64v64h64h64v-64v-64zM128 384v64v64v64v64h64h64v-64v-64v-64v-64h-64h-64zM256 640v64v64h64h64v-64v-64h-64h-64z" />
<glyph unicode="&#xff5c;" d="M192 -128h-64v64v64v64v64v64v64v64v64v64v64v64v64v64v64h64h64v-64v-64v-64v-64v-64v-64v-64v-64v-64v-64v-64v-64v-64v-64h-64z" />
<glyph unicode="&#xff5d;" d="M192 -128h-64v64v64h64h64v-64v-64h-64zM256 0v64v64v64v64h64h64v-64v-64v-64v-64h-64h-64zM384 256v64v64h64h64v-64v-64h-64h-64zM384 384h-64h-64v64v64v64v64h64h64v-64v-64v-64v-64zM256 640h-64h-64v64v64h64h64v-64v-64z" />
<glyph unicode="&#xff5e;" d="M320 364h-64v64v64h64h64v-64v-64h-64zM64 364h-64v64v64h64h64v-64v-64h-64zM384 492v64v64h64h64v-64v-64h-64h-64zM256 492h-64h-64v64v64h64h64v-64v-64z" />
</font>
</defs>
</svg>
